HIERARCHY
ROOT joint_Root
{
	OFFSET 0.0 0.0 0.0
	CHANNELS 6 Xposition Yposition Zposition Zrotation Xrotation Yrotation 
	JOINT Hips
	{
		OFFSET -0.726466 93.3139 -2.00062
		CHANNELS 6 Xposition Yposition Zposition Zrotation Xrotation Yrotation 
		JOINT Spine
		{
			OFFSET 15.7357 0.0 0.0
			CHANNELS 6 Xposition Yposition Zposition Zrotation Xrotation Yrotation 
			JOINT Chest
			{
				OFFSET 8.98455 -0.406207 0.0
				CHANNELS 6 Xposition Yposition Zposition Zrotation Xrotation Yrotation 
				JOINT Neck
				{
					OFFSET 16.3773 0.0 0.0
					CHANNELS 6 Xposition Yposition Zposition Zrotation Xrotation Yrotation 
					JOINT Head
					{
						OFFSET 6.45672 0.0 0.0
						CHANNELS 6 Xposition Yposition Zposition Zrotation Xrotation Yrotation 
						End Site
						{
							OFFSET 0.0 0.0 0.0
						}
					}
				}
				JOINT Shoulder_L
				{
					OFFSET 12.9942 -0.242716 4.98039
					CHANNELS 6 Xposition Yposition Zposition Zrotation Xrotation Yrotation 
					JOINT UpperArm_L
					{
						OFFSET 5.34809 0.0 0.0
						CHANNELS 6 Xposition Yposition Zposition Zrotation Xrotation Yrotation 
						JOINT LowerArm_L
						{
							OFFSET 24.3286 1.87007e-05 0.0
							CHANNELS 6 Xposition Yposition Zposition Zrotation Xrotation Yrotation 
							JOINT Hand_L
							{
								OFFSET 22.2916 0.0 0.0
								CHANNELS 6 Xposition Yposition Zposition Zrotation Xrotation Yrotation 
								End Site
								{
									OFFSET 0.0 0.0 0.0
								}
							}
						}
					}
				}
				JOINT Shoulder_R
				{
					OFFSET 12.9945 -0.242716 -4.98039
					CHANNELS 6 Xposition Yposition Zposition Zrotation Xrotation Yrotation 
					JOINT UpperArm_R
					{
						OFFSET -5.34813 0.0 0.0
						CHANNELS 6 Xposition Yposition Zposition Zrotation Xrotation Yrotation 
						JOINT LowerArm_R
						{
							OFFSET -24.3289 0.000322201 0.0
							CHANNELS 6 Xposition Yposition Zposition Zrotation Xrotation Yrotation 
							JOINT Hand_R
							{
								OFFSET -22.2915 -0.000108084 0.0
								CHANNELS 6 Xposition Yposition Zposition Zrotation Xrotation Yrotation 
								End Site
								{
									OFFSET 0.0 0.0 0.0
								}
							}
						}
					}
				}
			}
		}
		JOINT UpperLeg_L
		{
			OFFSET -2.19248 -6.46944 0.0
			CHANNELS 6 Xposition Yposition Zposition Zrotation Xrotation Yrotation 
			JOINT LowerLeg_L
			{
				OFFSET 39.0811 0.0 -1.23785e-05
				CHANNELS 6 Xposition Yposition Zposition Zrotation Xrotation Yrotation 
				JOINT Foot_L
				{
					OFFSET 40.9854 0.0 -1.26872e-05
					CHANNELS 6 Xposition Yposition Zposition Zrotation Xrotation Yrotation 
					JOINT Toes_L
					{
						OFFSET 11.7543 0.0 0.0
						CHANNELS 6 Xposition Yposition Zposition Zrotation Xrotation Yrotation 
						End Site
						{
							OFFSET 0.0 0.0 0.0
						}
					}
				}
			}
		}
		JOINT UpperLeg_R
		{
			OFFSET -2.19251 6.46944 0.0
			CHANNELS 6 Xposition Yposition Zposition Zrotation Xrotation Yrotation 
			JOINT LowerLeg_R
			{
				OFFSET -39.0811 -0.00228153 -0.0401928
				CHANNELS 6 Xposition Yposition Zposition Zrotation Xrotation Yrotation 
				JOINT Foot_R
				{
					OFFSET -40.9854 0.0 0.0
					CHANNELS 6 Xposition Yposition Zposition Zrotation Xrotation Yrotation 
					JOINT Toes_R
					{
						OFFSET -11.7543 0.0 0.0
						CHANNELS 6 Xposition Yposition Zposition Zrotation Xrotation Yrotation 
						End Site
						{
							OFFSET 0.0 0.0 0.0
						}
					}
				}
			}
		}
	}
}
MOTION
Frames:	4
Frame Time:	0.0333333
0.000000 0.000000 0.000000 0.000000 0.000000 -0.000000 -4.852670 92.055600 -1.791570 86.403600 -0.284093 2.071480 15.735700 0.000005 -0.000001 67.805400 86.428400 -64.040400 8.984550 -0.406207 -0.000000 -1.042920 -2.986900 7.501340 16.377300 -0.000001 -0.000001 0.512502 -1.757200 -0.236937 6.456720 -0.000001 -0.000000 -1.110800 -1.742730 12.694900 12.994200 -0.242716 4.980390 -85.180300 -10.080300 -64.277800 5.348090 -0.000007 -0.000001 -71.073400 -53.942500 -105.648000 24.328600 0.000019 0.000005 8.186000 4.630430 -60.699400 22.291600 -0.000001 0.000005 21.566500 5.629140 -13.272700 12.994500 -0.242716 -4.980390 89.846100 0.422895 -70.000000 -5.348130 -0.000001 -0.000004 -44.932700 79.147600 1.536470 -24.328900 0.000322 -0.000009 21.882700 -0.453027 -91.128500 -22.291500 -0.000108 -0.000004 37.350600 5.673540 -17.980300 -2.192480 -6.469440 -0.000000 -164.386000 -15.917400 -2.095670 39.081100 -0.000007 -0.000012 -0.130106 0.425046 17.019400 40.985400 -0.000006 -0.000013 -9.434980 4.501640 -59.955800 11.754300 -0.000000 0.000003 -0.000078 -0.000830 -16.609600 -2.192510 6.469440 -0.000001 178.715000 20.459200 177.685000 -39.081100 -0.002282 -0.040193 -0.085798 0.251158 19.536700 -40.985400 0.000008 0.000006 -2.377420 2.196010 -63.997900 -11.754300 -0.000006 -0.000006 -0.005292 -0.064260 -19.187900
0.000000 0.000000 0.000000 0.000000 0.000000 -0.000000 -4.862860 92.044100 -1.748460 86.400600 -0.329048 2.099790 15.735700 0.000005 -0.000001 67.986500 86.382900 -64.245200 8.984550 -0.406207 -0.000000 -0.950388 -2.995280 7.456210 16.377300 -0.000001 -0.000001 0.675715 -1.770410 -0.260956 6.456720 -0.000001 -0.000000 -1.140120 -1.790310 12.806800 12.994200 -0.242716 4.980390 -85.161700 -10.081700 -64.194100 5.348090 -0.000007 -0.000001 -71.116300 -53.849600 -105.673000 24.328600 0.000019 0.000005 8.259220 4.673150 -60.696000 22.291600 -0.000001 0.000005 21.687200 5.629610 -13.308200 12.994500 -0.242716 -4.980390 89.834600 0.454046 -69.983600 -5.348130 -0.000001 -0.000004 -44.842700 79.073500 1.430160 -24.328900 0.000322 -0.000009 21.890700 -0.453169 -91.128400 -22.291500 -0.000108 -0.000004 37.362600 5.673470 -17.968000 -2.192480 -6.469440 -0.000000 -164.358000 -15.915900 -2.051470 39.081100 -0.000007 -0.000012 -0.131224 0.426971 17.084300 40.985400 -0.000006 -0.000013 -9.449140 4.483450 -60.025900 11.754300 -0.000000 0.000003 -0.000073 -0.000784 -16.607800 -2.192510 6.469440 -0.000001 178.701000 20.443500 177.713000 -39.081100 -0.002282 -0.040193 -0.086028 0.250784 19.610100 -40.985400 0.000008 0.000006 -2.343000 2.223990 -64.067400 -11.754300 -0.000006 -0.000006 -0.005371 -0.065013 -19.218600
0.000000 0.000000 0.000000 0.000000 0.000000 -0.000000 -4.873200 92.041900 -1.720000 86.403700 -0.354185 2.148130 15.735700 0.000005 -0.000001 68.048000 86.341200 -64.328600 8.984550 -0.406207 -0.000000 -0.870160 -3.014970 7.414100 16.377300 -0.000001 -0.000001 0.809992 -1.777360 -0.271678 6.456720 -0.000001 -0.000000 -1.051550 -1.796050 12.860500 12.994200 -0.242716 4.980390 -85.150500 -10.093600 -64.168000 5.348090 -0.000007 -0.000001 -71.080000 -53.796000 -105.637000 24.328600 0.000019 0.000005 8.156390 4.631120 -60.605800 22.291600 -0.000001 0.000005 21.635100 5.630690 -13.388500 12.994500 -0.242716 -4.980390 89.829200 0.467977 -69.952200 -5.348130 -0.000001 -0.000004 -44.653700 79.041000 1.228570 -24.328900 0.000322 -0.000009 21.882600 -0.447280 -91.114200 -22.291500 -0.000108 -0.000004 37.387400 5.673740 -18.018300 -2.192480 -6.469440 -0.000000 -164.338000 -15.914000 -1.971590 39.081100 -0.000007 -0.000012 -0.131234 0.427256 17.074700 40.985400 -0.000006 -0.000013 -9.462380 4.449010 -60.039900 11.754300 -0.000000 0.000003 -0.000084 -0.000884 -16.611600 -2.192510 6.469440 -0.000001 178.682000 20.473900 177.780000 -39.081100 -0.002282 -0.040193 -0.085106 0.247994 19.625000 -40.985400 0.000008 0.000006 -2.306000 2.265550 -64.097400 -11.754300 -0.000006 -0.000006 -0.005497 -0.066195 -19.266800
0.000000 0.000000 0.000000 0.000000 0.000000 -0.000000 -4.882740 92.033400 -1.693100 86.367700 -0.370420 2.154300 15.735700 0.000005 -0.000001 68.011200 86.306200 -64.298100 8.984550 -0.406207 -0.000000 -0.806325 -3.042970 7.403020 16.377300 -0.000001 -0.000001 0.901301 -1.749090 -0.292088 6.456720 -0.000001 -0.000000 -0.947678 -1.750730 12.898300 12.994200 -0.242716 4.980390 -85.148400 -10.094800 -64.161000 5.348090 -0.000007 -0.000001 -70.942000 -53.864500 -105.558000 24.328600 0.000019 0.000005 8.130690 4.634530 -60.509300 22.291600 -0.000001 0.000005 21.509400 5.629700 -13.313900 12.994500 -0.242716 -4.980390 89.828500 0.470123 -69.955600 -5.348130 -0.000001 -0.000004 -44.522000 79.000100 1.054790 -24.328900 0.000322 -0.000009 21.952900 -0.436256 -91.082900 -22.291500 -0.000108 -0.000004 37.403700 5.673210 -17.918900 -2.192480 -6.469440 -0.000000 -164.286000 -15.890600 -1.980820 39.081100 -0.000007 -0.000012 -0.132077 0.427958 17.151400 40.985400 -0.000006 -0.000013 -9.474980 4.443690 -60.099000 11.754300 -0.000000 0.000003 -0.000079 -0.000844 -16.610100 -2.192510 6.469440 -0.000001 178.718000 20.474200 177.783000 -39.081100 -0.002282 -0.040193 -0.085657 0.248988 19.665000 -40.985400 0.000008 0.000006 -2.249260 2.271150 -64.137200 -11.754300 -0.000006 -0.000006 -0.005481 -0.066043 -19.260600
